<?xml version="1.0" encoding="UTF-8"?>
<svg xmlns="http://www.w3.org/2000/svg" viewBox="0 0 588.65 978.47">
  <defs>
    <style>
      .cls-1, .cls-2, .cls-3, .cls-4, .cls-5, .cls-6, .cls-7, .cls-8, .cls-9, .cls-10, .cls-11, .cls-12, .cls-13, .cls-14, .cls-15, .cls-16, .cls-17, .cls-18, .cls-19 {
        stroke-miterlimit: 10;
      }

      .cls-1, .cls-2, .cls-5, .cls-6, .cls-10, .cls-12, .cls-17 {
        stroke: #231f20;
      }

      .cls-1, .cls-3, .cls-4, .cls-5, .cls-7, .cls-8, .cls-9, .cls-10, .cls-11, .cls-13, .cls-14, .cls-15, .cls-16, .cls-18, .cls-19 {
        fill: none;
      }

      .cls-2 {
        fill: #ed2224;
      }

      .cls-3, .cls-4 {
        stroke: #ef4445;
      }

      .cls-3, .cls-7, .cls-8, .cls-10, .cls-12, .cls-18 {
        stroke-width: 2px;
      }

      .cls-5, .cls-14, .cls-17 {
        stroke-width: 3px;
      }

      .cls-6, .cls-12, .cls-17 {
        fill: #231f20;
      }

      .cls-7, .cls-11 {
        stroke: #ed2024;
      }

      .cls-8, .cls-9 {
        stroke: #6fbe44;
      }

      .cls-13 {
        stroke: #3953a5;
      }

      .cls-14, .cls-15 {
        stroke: #72cddd;
      }

      .cls-16, .cls-18 {
        stroke: #7ac143;
      }

      .cls-19 {
        stroke: #3c54a4;
      }
    </style>
  </defs>
  <g id="Layer_7" data-name="Layer 7">
    <path class="cls-5" d="M150.85,407.43v-105.63s0-7.45,0-7.45l8.93-4.78,120.03-63.98c132.93-65.02,117.41-96.31,117.41-96.31,26.06-12.69,83.35-14.46,96.04,11.6,12.69,26.06-24.03,70.07-50.09,82.76,0,0-13.84-29.75-134.07,28.44l-119.78,63.83-2.39,1.24v90.28"/>
    <path class="cls-17" d="M131.69,421.56v-7.07c0,7.77,9.18,7.05,9.18,7.05l-9.18,.02Z"/>
    <path class="cls-17" d="M204.72,421.63v-.66s0-6.41,0-6.41c0,7.77-9.18,7.05-9.18,7.05l9.18,.02Z"/>
    <path class="cls-5" d="M145.6,837.91s.96,18.86-12.92,18.86"/>
    <path class="cls-5" d="M191.13,837.91s-.97,18.86,13.14,18.86"/>
    <polygon class="cls-5" points="136.84 863.86 132.83 863.85 130.83 860.38 132.83 856.91 136.84 856.91 138.85 860.38 136.84 863.86"/>
    <polygon class="cls-5" points="136.81 871.17 132.8 871.17 130.8 867.69 132.81 864.22 136.82 864.22 138.82 867.7 136.81 871.17"/>
    <polygon class="cls-5" points="136.84 868.53 132.83 868.53 130.83 865.05 132.83 861.58 136.84 861.58 138.85 865.06 136.84 868.53"/>
    <polygon class="cls-5" points="136.84 866.13 132.83 866.13 130.83 862.66 132.83 859.18 136.84 859.18 138.85 862.66 136.84 866.13"/>
    <polygon class="cls-5" points="136.84 873.51 132.83 873.51 130.83 870.04 132.83 866.56 136.84 866.57 138.85 870.04 136.84 873.51"/>
    <polygon class="cls-5" points="136.81 876.08 132.8 876.08 130.8 872.61 132.81 869.13 136.82 869.13 138.82 872.61 136.81 876.08"/>
    <polygon class="cls-5" points="136.84 878.34 132.83 878.34 130.83 874.87 132.83 871.39 136.84 871.39 138.85 874.87 136.84 878.34"/>
    <polygon class="cls-5" points="136.84 880.81 132.83 880.81 130.83 877.34 132.83 873.87 136.84 873.87 138.85 877.34 136.84 880.81"/>
    <polygon class="cls-5" points="204.11 863.85 200.1 863.85 198.1 860.37 200.11 856.9 204.12 856.9 206.12 860.38 204.11 863.85"/>
    <polygon class="cls-5" points="204.09 871.16 200.07 871.16 198.07 867.69 200.08 864.21 204.09 864.21 206.09 867.69 204.09 871.16"/>
    <polygon class="cls-5" points="204.11 868.52 200.1 868.52 198.1 865.05 200.11 861.57 204.12 861.58 206.12 865.05 204.11 868.52"/>
    <polygon class="cls-5" points="204.11 866.13 200.1 866.12 198.1 862.65 200.11 859.18 204.12 859.18 206.12 862.65 204.11 866.13"/>
    <polygon class="cls-5" points="204.11 873.51 200.1 873.5 198.1 870.03 200.11 866.56 204.12 866.56 206.12 870.03 204.11 873.51"/>
    <polygon class="cls-5" points="204.09 876.07 200.07 876.07 198.07 872.6 200.08 869.13 204.09 869.13 206.09 872.6 204.09 876.07"/>
    <polygon class="cls-5" points="204.11 878.34 200.1 878.33 198.1 874.86 200.11 871.39 204.12 871.39 206.12 874.86 204.11 878.34"/>
    <polygon class="cls-5" points="204.11 880.81 200.1 880.81 198.1 877.33 200.11 873.86 204.12 873.86 206.12 877.33 204.11 880.81"/>
    <path class="cls-5" d="M145.51,899.8s.96-18.86-12.92-18.86"/>
    <path class="cls-5" d="M191.05,899.8s-.97-18.86,13.14-18.86"/>
  </g>
  <g id="Layer_9" data-name="Layer 9">
    <rect class="cls-5" x="131.69" y="407.43" width="73.03" height="14.11"/>
    <rect class="cls-6" x="140.87" y="421.54" width="9.99" height="16.03"/>
    <rect class="cls-6" x="186.89" y="421.54" width="9.1" height="16.03"/>
    <path class="cls-5" d="M131.69,421.54s9.18-.31,9.18,16.03-9.18,16.34-9.18,16.34h9.18v-9.26l-2.41,6.41-2.57,1.92,4.55,.08-.44-3.94-1.81,3.62,1.9-1.28,.06-3.12"/>
    <path class="cls-5" d="M205.01,421.54s-8.69-.31-8.69,16.03c0,16.34,9.18,16.34,9.18,16.34"/>
    <polygon class="cls-6" points="196.32 451.06 140.87 451.06 140.87 444.06 140.87 437.57 196.32 437.57 196.32 451.06"/>
    <polyline class="cls-5" points="196.32 445.08 196.32 454.8 145.63 454.8 140.87 454.8 140.87 445.46"/>
    <line class="cls-5" x1="131.69" y1="454.8" x2="205.5" y2="454.8"/>
    <polyline class="cls-5" points="203.34 454.19 196.32 453.69 197.18 446.92 197.83 450.56 198.79 451.53 199.55 451.94 200.36 452.73 201.21 453.17 201.71 453.52 199.58 453.6 198 453.02 196.81 452.44 197.36 450.8 199.34 452.79"/>
    <rect class="cls-5" x="132.46" y="539.48" width="72.24" height="84.42"/>
    <rect class="cls-5" x="140.87" y="539.66" width="54.67" height="84.42"/>
    <rect class="cls-5" x="104.73" y="807.44" width="107.82" height="30.47"/>
    <rect class="cls-5" x="89.29" y="800.44" width="15.44" height="46.68"/>
    <line class="cls-5" x1="97.01" y1="800.44" x2="97.01" y2="847.12"/>
    <rect class="cls-5" x="45.39" y="807.44" width="43.9" height="30.47"/>
    <rect class="cls-5" x="1.5" y="816.36" width="43.9" height="12.9"/>
  </g>
  <g id="Layer_8" data-name="Layer 8">
    <circle class="cls-5" cx="172.21" cy="304.9" r="32.51"/>
    <circle class="cls-5" cx="172.21" cy="304.9" r="49.69"/>
    <rect class="cls-5" x="140.87" y="455.15" width="54.67" height="77.33"/>
    <path class="cls-5" d="M132.46,454.8c0,11.86-7.66,11.86-7.66,11.86v53.79s7.66,0,7.66,11.86"/>
    <path class="cls-5" d="M204.7,454.8c0,11.86,7.66,11.86,7.66,11.86v53.79s-7.66,0-7.66,11.86"/>
    <rect class="cls-17" x="132.46" y="532.48" width="72.24" height="7"/>
    <rect class="cls-17" x="132.49" y="624.24" width="72.24" height="7"/>
    <rect class="cls-5" x="132.65" y="715.68" width="72.24" height="84.42"/>
    <rect class="cls-5" x="141.06" y="715.86" width="54.67" height="84.42"/>
    <rect class="cls-5" x="141.06" y="631.35" width="54.67" height="77.33"/>
    <path class="cls-5" d="M132.65,631c0,11.86-7.66,11.86-7.66,11.86v53.79s7.66,0,7.66,11.86"/>
    <path class="cls-5" d="M204.89,631c0,11.86,7.66,11.86,7.66,11.86v53.79s-7.66,0-7.66,11.86"/>
    <rect class="cls-17" x="132.65" y="708.68" width="72.24" height="7"/>
    <rect class="cls-17" x="132.67" y="800.44" width="72.24" height="7"/>
    <rect class="cls-5" x="141.06" y="837.91" width="54.67" height="61.05"/>
    <rect class="cls-5" x="142.95" y="899.64" width="51.05" height="77.33"/>
    <path class="cls-5" d="M141.14,899.29c0,11.86-7.66,11.86-7.66,11.86v53.79s7.66,0,7.66,11.86"/>
    <path class="cls-5" d="M195.59,899.29c0,11.86,7.66,11.86,7.66,11.86v53.79s-7.66,0-7.66,11.86"/>
    <g>
      <polyline class="cls-5" points="176.2 280.69 176.2 251.26 162.24 251.26 162.24 288.58"/>
      <rect class="cls-5" x="155.75" y="239.69" width="26.83" height="11.58"/>
      <line class="cls-5" x1="155.75" y1="245.47" x2="182.58" y2="245.47"/>
      <rect class="cls-5" x="155.75" y="251.26" width="3.25" height="1.3"/>
      <rect class="cls-5" x="179.33" y="251.26" width="3.25" height="1.3"/>
      <rect class="cls-5" x="155.75" y="238" width="1.62" height="1.3"/>
      <rect class="cls-5" x="180.96" y="238" width="1.62" height="1.3"/>
    </g>
    <g>
      <line class="cls-5" x1="123.24" y1="344.32" x2="111.6" y2="320.15"/>
      <g>
        <polyline class="cls-5" points="151.37 307.44 119.59 323.39 125.64 335.97 149.95 322.38"/>
        <rect class="cls-5" x="104.01" y="326.45" width="26.83" height="11.58" transform="translate(-131.06 582.09) rotate(-115.69)"/>
        <rect class="cls-5" x="126.71" y="339.42" width="3.25" height="1.3" transform="translate(-122.48 603.15) rotate(-115.69)"/>
        <rect class="cls-5" x="116.48" y="318.17" width="3.25" height="1.3" transform="translate(-117.99 563.47) rotate(-115.69)"/>
        <rect class="cls-5" x="115.92" y="345.9" width="1.62" height="1.3" transform="translate(-144.95 601.99) rotate(-115.69)"/>
        <rect class="cls-5" x="104.99" y="323.19" width="1.62" height="1.3" transform="translate(-140.14 559.58) rotate(-115.69)"/>
      </g>
    </g>
  </g>
  <g id="Layer_19" data-name="Layer 19">
    <g id="Layer_27" data-name="Layer 27">
      <rect class="cls-10" x="425.33" y="17.89" width="36.54" height="39.7"/>
      <line class="cls-10" x1="421.13" y1="106.63" x2="424.95" y2="122.3"/>
      <line class="cls-10" x1="465.9" y1="107.66" x2="460.8" y2="122.68"/>
    </g>
    <g id="Layer_24" data-name="Layer 24">
      <polyline class="cls-3" points="413.89 63.34 405.79 69.43 410.3 73.94 405.81 78.43 410.51 83.13 405.85 87.79 409.96 91.91 405.59 96.28 410.16 100.86 406.17 104.85 408.52 107.2 420.9 107.2 424.21 103.9 421.07 100.76 424.22 97.62 421.03 94.43 424.43 91.02 421.03 87.62 424.12 84.53 420.83 81.25 424.44 77.64 421.23 74.43 424.2 71.46 421.07 68.32"/>
      <polyline class="cls-3" points="470.14 62.34 481.24 69.43 476.73 73.94 481.22 78.43 476.52 83.13 481.18 87.79 477.07 91.91 481.44 96.28 476.87 100.86 480.86 104.85 478.51 107.2 466.13 107.2 462.82 103.9 465.96 100.76 462.81 97.62 466 94.43 462.6 91.02 466 87.62 462.91 84.53 466.2 81.25 462.59 77.64 465.8 74.43 462.83 71.46 465.96 68.32"/>
      <line class="cls-4" x1="444.21" y1="125.22" x2="444.21"/>
      <rect class="cls-3" x="428.32" y="17.89" width="30.57" height="40.28"/>
      <rect class="cls-8" x="431.45" y="17.89" width="24.84" height="39.7"/>
      <rect class="cls-8" x="422.58" y="12.54" width="42.39" height="5.35"/>
    </g>
    <g id="Layer_25" data-name="Layer 25">
      <path class="cls-5" d="M411.8,67.61s21.12,6.98,23.43-9.99"/>
      <path class="cls-5" d="M475.39,67.37s-20.92,4.38-20.84-9.79"/>
    </g>
    <g id="Layer_20" data-name="Layer 20">
      <rect class="cls-5" x="438.48" y="67.19" width="11.46" height="20.87"/>
      <rect class="cls-5" x="404.25" y="107.2" width="77.69" height="7.34"/>
      <line class="cls-5" x1="412.8" y1="100.78" x2="412.8" y2="114.54"/>
      <line class="cls-5" x1="473.86" y1="100.78" x2="473.86" y2="114.54"/>
      <path class="cls-5" d="M412.8,68.45s-5.4-11.01,22.65-10.83h19.5s18.18,.46,20.91,11.18"/>
    </g>
    <g id="Layer_21" data-name="Layer 21">
      <rect class="cls-15" x="431.6" y="86.91" width="25.68" height="20.29"/>
      <rect class="cls-15" x="434.58" y="91.15" width="20.18" height="16.05"/>
    </g>
    <g id="Layer_23" data-name="Layer 23">
      <rect class="cls-9" x="436.3" y="98.26" width="16.62" height="11.69"/>
    </g>
  </g>
  <g id="Layer_29" data-name="Layer 29">
    <line class="cls-5" x1="474.42" y1="221.77" x2="509.26" y2="178.19"/>
    <rect class="cls-10" x="531.47" y="221.55" width="59.14" height="6.12" transform="translate(263.08 -301.16) rotate(38.64)"/>
    <polyline class="cls-10" points="572.66 267.72 587.25 249.47 577.75 241.88 563.2 260.09"/>
    <line class="cls-10" x1="540.5" y1="212.1" x2="529.67" y2="225.65"/>
    <rect class="cls-6" x="533.22" y="220.29" width="8.25" height="4.74" transform="translate(256.67 -286.79) rotate(38.64)"/>
    <rect class="cls-6" x="539.12" y="219.96" width="14.22" height="5.94" transform="translate(258.78 -292.28) rotate(38.64)"/>
    <line class="cls-17" x1="549.74" y1="226.5" x2="536.13" y2="243.51"/>
    <line class="cls-12" x1="539.71" y1="226.31" x2="545.92" y2="231.27"/>
    <line class="cls-11" x1="538.6" y1="240.43" x2="551.09" y2="224.81"/>
    <line class="cls-11" x1="537.38" y1="241.96" x2="538.6" y2="240.43"/>
    <polyline class="cls-11" points="545.92 231.27 538.04 224.97 543.62 217.99"/>
    <rect class="cls-10" x="499.95" y="260.99" width="59.14" height="6.12" transform="translate(280.8 -272.84) rotate(38.64)"/>
    <polyline class="cls-10" points="574.12 265.88 559.54 284.13 550.04 276.54 564.6 258.34"/>
    <polyline class="cls-10" points="519.28 229.73 529.58 237.97 535.62 230.41 525.32 222.18"/>
    <line class="cls-10" x1="512.79" y1="246.76" x2="523.63" y2="233.21"/>
    <rect class="cls-6" x="518.27" y="238.99" width="8.25" height="4.74" transform="translate(265.07 -273.36) rotate(38.64)"/>
    <rect class="cls-6" x="517.51" y="247" width="14.22" height="5.94" transform="translate(270.93 -272.86) rotate(38.64)"/>
    <line class="cls-17" x1="528.87" y1="252.6" x2="542.47" y2="235.59"/>
    <line class="cls-12" x1="526.47" y1="242.87" x2="532.68" y2="247.83"/>
    <line class="cls-11" x1="540" y1="238.67" x2="527.52" y2="254.29"/>
    <line class="cls-11" x1="547.47" y1="229.33" x2="540" y2="238.67"/>
    <polyline class="cls-11" points="532.68 247.83 524.8 241.53 519.22 248.51"/>
    <polyline class="cls-5" points="539.3 239.55 552.2 249.86 559.12 255.4"/>
    <polyline class="cls-5" points="563.51 245.75 548.29 246.74 550.65 261.48"/>
    <line class="cls-11" x1="557.17" y1="253.69" x2="475.49" y2="188.39"/>
    <polyline class="cls-11" points="562.52 245.82 548.41 246.68 550.64 260.29"/>
    <line class="cls-10" x1="505.35" y1="184" x2="490.72" y2="177.2"/>
    <polyline class="cls-5" points="542.43 200.53 543.98 195.25 537.64 195.96 536.94 189.64 530.33 190.38 529.6 183.82 523.82 184.47 523.13 178.32 516.7 179.03 516.08 173.42 512.77 173.79 505.04 183.46 505.56 188.11 509.96 187.62 510.46 192.03 514.94 191.53 515.48 196.32 520.26 195.79 520.74 200.13 525.36 199.62 525.92 204.69 530.44 204.19 530.9 208.36 536.71 207.71"/>
    <polyline class="cls-5" points="505.27 213.84 509.02 209.15 525.32 222.18 521.56 226.87"/>
    <polyline class="cls-5" points="484.5 197.4 509.71 165.87 515.44 170.45"/>
    <line class="cls-5" x1="515.12" y1="181.14" x2="504.37" y2="172.55"/>
    <polyline class="cls-14" points="506.16 214.56 514.21 204.49 498.36 191.82"/>
    <polyline class="cls-11" points="506.16 214.56 514.21 204.49 498.36 191.82"/>
    <polyline class="cls-9" points="488.19 200.13 493.28 193.77 502.41 201.08 497.33 207.43"/>
    <polyline class="cls-9" points="497.33 207.43 500.26 203.77 509.12 210.85 506.16 214.56"/>
    <line class="cls-5" x1="505.64" y1="207.49" x2="510.44" y2="201.48"/>
    <line class="cls-10" x1="477.64" y1="218.66" x2="467.79" y2="205.89"/>
    <polyline class="cls-5" points="501.93 251.2 497.12 253.87 496.41 247.53 490.1 248.23 489.36 241.63 482.81 242.36 482.16 236.58 476.01 237.26 475.3 230.83 469.68 231.46 469.31 228.15 477.05 218.48 481.69 217.96 482.18 222.37 486.6 221.87 487.1 226.36 491.89 225.83 492.42 230.61 496.76 230.12 497.28 234.74 502.35 234.18 502.86 238.69 507.03 238.22 507.67 244.03"/>
    <polyline class="cls-5" points="506.73 212.01 502.98 216.7 519.28 229.73 523.03 225.04"/>
    <polyline class="cls-5" points="486.12 195.38 460.91 226.91 466.65 231.49"/>
    <line class="cls-5" x1="477" y1="228.82" x2="466.26" y2="220.23"/>
    <polyline class="cls-14" points="507.63 212.72 499.58 222.79 483.73 210.12"/>
    <polyline class="cls-11" points="507.63 212.72 499.58 222.79 483.73 210.12"/>
    <polyline class="cls-9" points="489.6 198.37 484.51 204.73 493.65 212.03 498.73 205.68"/>
    <polyline class="cls-9" points="498.73 205.68 495.8 209.34 504.67 216.43 507.63 212.72"/>
    <line class="cls-5" x1="500.61" y1="213.77" x2="495.81" y2="219.78"/>
    <line class="cls-5" x1="521.45" y1="226.78" x2="542.88" y2="199.98"/>
    <line class="cls-5" x1="522.92" y1="224.95" x2="501.49" y2="251.75"/>
    <line class="cls-11" x1="490.34" y1="201.85" x2="501.48" y2="187.92"/>
    <line class="cls-7" x1="515.44" y1="170.45" x2="501.48" y2="187.92"/>
    <line class="cls-7" x1="542.43" y1="200.53" x2="532.62" y2="212.81"/>
    <line class="cls-11" x1="491.75" y1="200.09" x2="480.61" y2="214.02"/>
    <line class="cls-7" x1="466.65" y1="231.49" x2="480.61" y2="214.02"/>
    <line class="cls-7" x1="501.93" y1="251.2" x2="511.75" y2="238.92"/>
  </g>
  <g id="Layer_36" data-name="Layer 36">
    <path class="cls-2" d="M466.23,149.53l-5.27-10.78s-10.14-4.78-14.58-4.46c0,0,.88,12.91-23.86,34.51l1.53,2.57,42.19-21.83Z"/>
    <path class="cls-1" d="M422.51,168.8l-2.22-2.6s15.3-9.89,17.88-22.63l8.21-9.27"/>
    <path class="cls-2" d="M429.97,127.38s5.11,.12,6.94,2.28c0,0-1.91,16.1-20.75,30.38,0,0-5.4-5.39-6.43-6.96,0,0,2.74-4.98,3.91-6.17l3.25,1.51,3.84-4.82-1.78-3.06,11.04-13.15Z"/>
    <path class="cls-2" d="M469.86,155.94l5.58,10.62s-2.13,11.01-5.02,14.4c0,0-9.9-8.33-41.94-1.13l-1.17-2.75,42.54-21.14Z"/>
    <path class="cls-1" d="M428.49,179.84l.79,3.33s17.02-6.5,28.82-1.05l12.33-1.15"/>
    <path class="cls-2" d="M466.32,198.28s2.93-4.2,2.26-6.95c0,0-14.12-7.97-36.77-1.2,0,0,1.16,7.54,1.82,9.3,0,0,5.64,.73,7.29,.49l.7-3.51,6.16-.25,1.42,3.25,17.13-1.14Z"/>
    <line class="cls-11" x1="379.54" y1="197.62" x2="493.59" y2="139.11"/>
    <line class="cls-11" x1="333.9" y1="221.04" x2="373.2" y2="200.88"/>
    <line class="cls-11" x1="314.38" y1="231.05" x2="323.9" y2="226.17"/>
    <line class="cls-11" x1="267.29" y1="255.22" x2="307.39" y2="234.64"/>
    <line class="cls-11" x1="248.17" y1="265.02" x2="256.17" y2="260.92"/>
    <line class="cls-11" x1="204.72" y1="287.32" x2="242.53" y2="267.92"/>
    <line class="cls-4" x1="440.54" y1="136.21" x2="435.65" y2="146.99"/>
    <line class="cls-4" x1="433.89" y1="151.11" x2="429.92" y2="156.46"/>
    <line class="cls-4" x1="426.4" y1="160.04" x2="416.93" y2="166.71"/>
    <line class="cls-4" x1="428.16" y1="184.75" x2="437.79" y2="181.64"/>
    <line class="cls-4" x1="442.99" y1="180.97" x2="449.46" y2="181.5"/>
    <line class="cls-4" x1="453" y1="181.64" x2="461.72" y2="183.17"/>
    <rect class="cls-4" x="310.45" y="218.55" width="16.07" height="4.89" transform="translate(-65.66 169.03) rotate(-27.05)"/>
    <rect class="cls-4" x="316.69" y="230.77" width="16.07" height="4.89" transform="translate(-70.54 173.21) rotate(-27.05)"/>
    <rect class="cls-4" x="250.84" y="248.99" width="16.07" height="4.89" transform="translate(-86.03 145.25) rotate(-27.05)"/>
    <rect class="cls-4" x="257.13" y="261.29" width="16.07" height="4.89" transform="translate(-90.94 149.46) rotate(-27.05)"/>
    <rect class="cls-4" x="272.95" y="233.32" width="33.23" height="4.89" transform="translate(-75.54 157.5) rotate(-27.05)"/>
    <rect class="cls-4" x="279.24" y="245.62" width="33.23" height="4.89" transform="translate(-80.45 161.7) rotate(-27.05)"/>
    <rect class="cls-16" x="213.87" y="273.55" width="22.2" height="6.76" transform="translate(365.24 -51.14) rotate(62.24)"/>
    <rect class="cls-16" x="361.45" y="197.93" width="22.2" height="6.76" transform="translate(377.16 -222.13) rotate(62.24)"/>
    <line class="cls-19" x1="212.61" y1="267.92" x2="225.97" y2="292.61"/>
    <path class="cls-11" d="M204.72,287.32s-35.5,13.23-35.5,62.3l-.42,448.74"/>
    <line class="cls-11" x1="168.47" y1="839.39" x2="168.47" y2="974.68"/>
  </g>
  <g id="Layer_37" data-name="Layer 37">
    <line class="cls-19" x1="224.61" y1="260.92" x2="237.97" y2="285.61"/>
    <line class="cls-19" x1="243.32" y1="250.56" x2="256.68" y2="275.25"/>
    <line class="cls-19" x1="266.73" y1="238.8" x2="280.1" y2="263.49"/>
    <line class="cls-19" x1="303.96" y1="218.71" x2="317.33" y2="243.4"/>
    <line class="cls-19" x1="327.38" y1="206.94" x2="340.75" y2="231.63"/>
    <line class="cls-19" x1="344.11" y1="199.36" x2="357.48" y2="224.05"/>
    <line class="cls-19" x1="359.84" y1="192.14" x2="373.2" y2="216.83"/>
    <line class="cls-19" x1="372.92" y1="185.39" x2="386.29" y2="210.08"/>
    <line class="cls-10" x1="367.1" y1="208.86" x2="358.3" y2="213.49"/>
    <line class="cls-10" x1="363.06" y1="200.93" x2="354.27" y2="205.56"/>
    <ellipse class="cls-1" cx="241.43" cy="268.27" rx="5.52" ry="10.43" transform="translate(-101.79 156.66) rotate(-30)"/>
  </g>
  <g id="Layer_38" data-name="Layer 38">
    <rect class="cls-11" x="151.95" y="506" width="8.02" height="15.46"/>
    <rect class="cls-11" x="151.95" y="541.69" width="7.06" height="36.26"/>
    <rect class="cls-11" x="151.68" y="599.57" width="8.02" height="15.46"/>
    <rect class="cls-11" x="178.72" y="505.8" width="8.02" height="15.46"/>
    <rect class="cls-11" x="178.72" y="541.49" width="7.06" height="36.26"/>
    <rect class="cls-11" x="178.44" y="599.36" width="8.02" height="15.46"/>
    <rect class="cls-11" x="151.56" y="686.16" width="8.02" height="15.46"/>
    <rect class="cls-11" x="178.33" y="685.96" width="8.02" height="15.46"/>
    <rect class="cls-11" x="151.56" y="905.74" width="8.02" height="15.46"/>
    <rect class="cls-11" x="178.33" y="905.54" width="8.02" height="15.46"/>
    <rect class="cls-11" x="151.94" y="955.84" width="8.02" height="15.46"/>
    <rect class="cls-11" x="178.7" y="955.63" width="8.02" height="15.46"/>
    <line class="cls-13" x1="148.26" y1="502.1" x2="189.54" y2="502.1"/>
    <line class="cls-13" x1="148.42" y1="459.45" x2="189.54" y2="459.45"/>
    <line class="cls-13" x1="189.54" y1="473.82" x2="148.42" y2="473.82"/>
    <line class="cls-13" x1="148.42" y1="525.03" x2="189.54" y2="525.03"/>
    <line class="cls-13" x1="148.42" y1="588.92" x2="189.54" y2="588.92"/>
    <line class="cls-13" x1="148.42" y1="704.8" x2="189.54" y2="704.8"/>
    <line class="cls-13" x1="148.42" y1="684.02" x2="189.54" y2="684.02"/>
    <line class="cls-13" x1="148.42" y1="671.97" x2="189.54" y2="671.97"/>
    <line class="cls-13" x1="148.42" y1="647.06" x2="189.54" y2="647.06"/>
    <line class="cls-13" x1="148.42" y1="903.6" x2="189.54" y2="903.6"/>
    <line class="cls-13" x1="148.42" y1="923.09" x2="189.54" y2="923.09"/>
    <line class="cls-13" x1="189.54" y1="929.97" x2="148.42" y2="929.97"/>
    <line class="cls-13" x1="148.42" y1="973.54" x2="189.54" y2="973.54"/>
    <line class="cls-13" x1="148.42" y1="953.58" x2="189.54" y2="953.58"/>
    <line class="cls-13" x1="148.42" y1="946.02" x2="189.54" y2="946.02"/>
    <line class="cls-5" x1="168.47" y1="832.75" x2="168.47" y2="812.57"/>
    <line class="cls-5" x1="178.32" y1="822.62" x2="158.14" y2="822.62"/>
    <rect class="cls-10" x="154.57" y="743.17" width="28.59" height="28.59"/>
    <line class="cls-10" x1="159.58" y1="768.24" x2="178.33" y2="768.24"/>
    <line class="cls-10" x1="159.6" y1="764.24" x2="178.35" y2="764.24"/>
    <line class="cls-10" x1="159.6" y1="760.36" x2="178.35" y2="760.36"/>
    <line class="cls-10" x1="171.12" y1="756.61" x2="178.35" y2="756.61"/>
    <line class="cls-10" x1="159.6" y1="756.61" x2="166.76" y2="756.61"/>
    <line class="cls-10" x1="171.12" y1="752.61" x2="178.38" y2="752.61"/>
    <line class="cls-10" x1="159.63" y1="752.61" x2="166.76" y2="752.61"/>
    <line class="cls-10" x1="171.12" y1="748.74" x2="178.38" y2="748.74"/>
    <line class="cls-10" x1="159.63" y1="748.74" x2="166.76" y2="748.74"/>
    <rect class="cls-10" x="148.42" y="933.71" width="41.12" height="8.94"/>
    <line class="cls-1" x1="158.8" y1="937.99" x2="168.66" y2="937.99"/>
    <rect class="cls-1" x="168.47" y="935.7" width="21.06" height="5.16"/>
    <rect class="cls-10" x="155.96" y="482.07" width="26.76" height="9.17"/>
    <rect class="cls-10" x="155.96" y="482.07" width="5.3" height="9.17"/>
    <rect class="cls-10" x="155.96" y="482.07" width="2.65" height="9.17"/>
    <rect class="cls-10" x="161.56" y="482.07" width="5.3" height="9.17"/>
    <rect class="cls-10" x="161.56" y="482.07" width="2.65" height="9.17"/>
    <rect class="cls-10" x="167.2" y="482.02" width="5.3" height="9.17"/>
    <rect class="cls-10" x="167.2" y="482.02" width="2.65" height="9.17"/>
    <rect class="cls-16" x="155.96" y="462.5" width="26.85" height="7.95"/>
    <line class="cls-18" x1="159.69" y1="680.8" x2="159.69" y2="675.14"/>
    <line class="cls-18" x1="178.33" y1="680.8" x2="178.33" y2="675.14"/>
    <rect class="cls-16" x="156.06" y="637.31" width="26.75" height="7.03"/>
    <rect class="cls-16" x="156.06" y="947.62" width="26.65" height="4.3"/>
    <line class="cls-18" x1="159.58" y1="928.21" x2="159.58" y2="924.92"/>
    <line class="cls-18" x1="178.33" y1="928.21" x2="178.33" y2="924.92"/>
    <rect class="cls-1" x="156.06" y="662.15" width="26.39" height="6.65"/>
    <ellipse class="cls-1" cx="168.98" cy="653.86" rx="13.83" ry="3.9"/>
    <line class="cls-1" x1="159.69" y1="665.47" x2="178.44" y2="665.47"/>
  </g>
</svg>