<?xml version="1.0" encoding="UTF-8"?>
<svg xmlns="http://www.w3.org/2000/svg" viewBox="0 0 763.27 879.24">
  <defs>
    <style>
      .cls-1, .cls-2, .cls-3, .cls-4, .cls-5, .cls-6, .cls-7, .cls-8, .cls-9, .cls-10, .cls-11, .cls-12, .cls-13, .cls-14, .cls-15, .cls-16, .cls-17, .cls-18, .cls-19, .cls-20, .cls-21, .cls-22, .cls-23, .cls-24, .cls-25, .cls-26, .cls-27, .cls-28 {
        stroke-miterlimit: 10;
      }

      .cls-1, .cls-2, .cls-3, .cls-4, .cls-5, .cls-6, .cls-8, .cls-9, .cls-11, .cls-13, .cls-14, .cls-15, .cls-17, .cls-18, .cls-29, .cls-19, .cls-20, .cls-21, .cls-22, .cls-23, .cls-25, .cls-26, .cls-27, .cls-28 {
        fill: none;
      }

      .cls-1, .cls-2, .cls-6, .cls-7, .cls-10, .cls-12, .cls-14, .cls-16, .cls-24, .cls-25 {
        stroke: #231f20;
      }

      .cls-1, .cls-4, .cls-8, .cls-14, .cls-16, .cls-26, .cls-28 {
        stroke-width: 2px;
      }

      .cls-1, .cls-13, .cls-17, .cls-18, .cls-21, .cls-22, .cls-25, .cls-28 {
        opacity: .5;
      }

      .cls-3, .cls-5, .cls-9, .cls-20, .cls-26, .cls-27 {
        stroke: #ef3a37;
      }

      .cls-3, .cls-6, .cls-19, .cls-24 {
        stroke-width: 3px;
      }

      .cls-4, .cls-17 {
        stroke: #ef4445;
      }

      .cls-5 {
        stroke-width: 2.5px;
      }

      .cls-7, .cls-12, .cls-16, .cls-24 {
        fill: #231f20;
      }

      .cls-8, .cls-13, .cls-15 {
        stroke: #ed2024;
      }

      .cls-9 {
        stroke-width: 5px;
      }

      .cls-10 {
        fill: #ef626a;
      }

      .cls-11 {
        stroke: #6fbe44;
      }

      .cls-12, .cls-20 {
        stroke-width: 4px;
      }

      .cls-18, .cls-28 {
        stroke: #7ac143;
      }

      .cls-19, .cls-23 {
        stroke: #72cddd;
      }

      .cls-21 {
        stroke: #3c54a4;
      }

      .cls-22 {
        stroke: #3953a5;
      }

      .cls-27 {
        stroke-width: 4.5px;
      }
    </style>
  </defs>
  <g id="Layer_7" data-name="Layer 7">
    <path class="cls-6" d="M535.47,323.63l106.58,52.68,1.23,150.13c-2.91,147.95,26.01,147.45,26.01,147.45-.62,28.98-25.23,80.75-54.21,80.13-28.98-.62-51.35-53.4-50.73-82.37,0,0,23.78,7.29,26.97-126.24l1.95-139.4-77.3-41.25"/>
    <path class="cls-24" d="M537.66,290.13l.59,.3,5.7,2.93c-6.91-3.55-17.47,18.94-17.47,18.94l11.18-22.17Z"/>
    <path class="cls-24" d="M490.23,384.06l.59,.3,5.7,2.93c-6.91-3.55,4.92-26.39,4.92-26.39l-11.21,23.16Z"/>
    <path class="cls-6" d="M153.97,126.23s-9.8-22.2-3.46-34.55"/>
    <path class="cls-6" d="M133.16,166.74s-21.6,.77-28.05,13.32"/>
    <polygon class="cls-6" points="142.31 92.16 144.15 88.59 148.15 88.4 150.32 91.77 148.49 95.34 144.48 95.53 142.31 92.16"/>
    <polygon class="cls-6" points="135.82 88.79 137.66 85.22 141.66 85.03 143.83 88.4 142 91.97 137.99 92.16 135.82 88.79"/>
    <polygon class="cls-6" points="138.15 90.02 139.99 86.46 144 86.26 146.17 89.63 144.33 93.2 140.33 93.39 138.15 90.02"/>
    <polygon class="cls-6" points="140.29 91.12 142.12 87.55 146.13 87.36 148.3 90.73 146.47 94.3 142.46 94.49 140.29 91.12"/>
    <polygon class="cls-6" points="133.72 87.75 135.56 84.18 139.56 83.98 141.73 87.36 139.9 90.92 135.89 91.12 133.72 87.75"/>
    <polygon class="cls-6" points="131.45 86.55 133.28 82.98 137.29 82.78 139.46 86.16 137.63 89.72 133.62 89.92 131.45 86.55"/>
    <polygon class="cls-6" points="129.43 85.54 131.26 81.97 135.27 81.78 137.44 85.15 135.6 88.72 131.6 88.91 129.43 85.54"/>
    <polygon class="cls-6" points="126.75 85.34 129.06 80.84 133.07 80.65 135.24 84.02 133.41 87.59 129.4 87.78 126.75 85.34"/>
    <polygon class="cls-6" points="98.9 176.68 100.73 173.11 104.74 172.92 106.91 176.29 105.07 179.86 101.07 180.05 98.9 176.68"/>
    <polygon class="cls-6" points="92.4 173.31 94.24 169.75 98.24 169.55 100.42 172.92 98.58 176.49 94.58 176.68 92.4 173.31"/>
    <polygon class="cls-6" points="94.74 174.54 96.57 170.98 100.58 170.78 102.75 174.15 100.92 177.72 96.91 177.92 94.74 174.54"/>
    <polygon class="cls-6" points="96.87 175.64 98.7 172.07 102.71 171.88 104.88 175.25 103.05 178.82 99.04 179.01 96.87 175.64"/>
    <polygon class="cls-6" points="90.31 172.27 92.14 168.7 96.15 168.5 98.32 171.88 96.48 175.44 92.48 175.64 90.31 172.27"/>
    <polygon class="cls-6" points="88.03 171.07 89.87 167.5 93.87 167.31 96.05 170.68 94.21 174.24 90.21 174.44 88.03 171.07"/>
    <polygon class="cls-6" points="86.01 170.06 87.84 166.49 91.85 166.3 94.02 169.67 92.19 173.24 88.18 173.43 86.01 170.06"/>
    <polygon class="cls-6" points="83.81 168.93 85.65 165.36 89.65 165.17 91.82 168.54 89.99 172.11 85.98 172.3 83.81 168.93"/>
    <path class="cls-6" d="M98.96,97.88s23.76-4.96,30.1-17.31"/>
    <path class="cls-6" d="M78.15,138.38s11.96,18,5.5,30.56"/>
  </g>
  <g id="Layer_9" data-name="Layer 9">
    <polygon class="cls-6" points="490.3 384.1 537.68 290.14 550.23 296.58 502.85 390.54 490.3 384.1"/>
    <rect class="cls-7" x="512.08" y="305.07" width="9.99" height="16.03" transform="translate(1031.85 -3.77) rotate(117.19)"/>
    <rect class="cls-7" x="491.7" y="345.61" width="9.1" height="16.03" transform="translate(1037.56 73.82) rotate(117.19)"/>
    <path class="cls-6" d="M537.68,290.14s-10.92,22.31-25.45,14.84c-14.53-7.47-10.34-15.63-10.34-15.63l-4.2,8.17,8.23,4.23-4.6-5.07-.53-3.16-2.15,4.01,3.7,1.41-2.39-3.26,.28,2.27,2.75,1.48"/>
    <path class="cls-6" d="M490.17,384.36s11.25-22.59-3.28-30.05-18.73,.7-18.73,.7"/>
    <polygon class="cls-24" points="474.89 348.14 500.23 298.81 506.45 302.01 512.23 304.98 486.89 354.3 474.89 348.14"/>
    <polyline class="cls-6" points="480.21 350.87 471.56 346.43 494.72 301.34 496.9 297.1 505.21 301.37"/>
    <line class="cls-6" x1="501.1" y1="288.94" x2="467.37" y2="354.59"/>
    <polyline class="cls-6" points="468.9 352.95 472.55 346.93 478.17 350.79 474.65 349.71 473.34 350.11 472.63 350.6 471.56 350.97 470.78 351.52 470.24 351.8 471.14 349.87 472.38 348.73 473.44 347.94 474.64 349.18 471.97 350.03"/>
    <polygon class="cls-6" points="312.78 285.25 353.79 204.16 428.88 242.74 387.87 323.83 312.78 285.25"/>
    <polygon class="cls-6" points="316.81 277.02 349.79 211.55 424.88 250.13 391.9 315.6 316.81 277.02"/>
    <polygon class="cls-6" points="113.42 205.9 172.65 89.88 199.75 103.81 140.53 219.82 113.42 205.9"/>
    <rect class="cls-6" x="181.02" y="66.13" width="15.44" height="46.68" transform="translate(354.58 -37.52) rotate(117.19)"/>
    <line class="cls-6" x1="209.5" y1="100.14" x2="167.98" y2="78.81"/>
    <rect class="cls-6" x="181.34" y="48.35" width="43.9" height="30.47" transform="translate(352.74 -88.17) rotate(117.19)"/>
    <rect class="cls-6" x="201.28" y="18.04" width="43.9" height="12.9" transform="translate(347.02 -162.87) rotate(117.19)"/>
  </g>
  <g id="Layer_8" data-name="Layer 8">
    <circle class="cls-6" cx="612.47" cy="397.32" r="45.39"/>
    <circle class="cls-6" cx="612.47" cy="397.32" r="69.37"/>
    <polygon class="cls-6" points="400.22 318.78 432.43 254.58 501.21 289.92 469 354.12 400.22 318.78"/>
    <path class="cls-6" d="M505.37,282.6c-10.55-5.42-7.05-12.23-7.05-12.23l-47.84-24.58s-3.5,6.81-14.05,1.39l-40.24,79.83c10.55,5.42,7.05,12.23,7.05,12.23l47.84,24.58s3.5-6.81,14.05-1.39l40.24-79.83Z"/>
    <rect class="cls-24" x="375.91" y="281.16" width="72.24" height="7" transform="translate(853.51 48.25) rotate(117.19)"/>
    <rect class="cls-24" x="294.28" y="239.25" width="72.24" height="7" transform="translate(697.3 59.79) rotate(117.19)"/>
    <polygon class="cls-6" points="156.77 204.65 198.08 124.54 273.17 163.11 231.86 243.23 156.77 204.65"/>
    <polygon class="cls-6" points="160.8 196.42 194.08 131.93 269.17 170.51 235.89 235 160.8 196.42"/>
    <polygon class="cls-6" points="242.13 238.29 274.95 173.91 343.73 209.25 310.92 273.63 242.13 238.29"/>
    <path class="cls-6" d="M307.04,281.94c-10.55-5.42-14.05,1.39-14.05,1.39l-47.84-24.58s3.5-6.81-7.05-12.23l40.84-80.01c10.55,5.42,14.05-1.39,14.05-1.39l47.84,24.58s-3.5,6.81,7.05,12.23l-40.84,80.01Z"/>
    <rect class="cls-24" x="219.09" y="200.8" width="72.24" height="7" transform="translate(553.57 70.65) rotate(117.19)"/>
    <rect class="cls-6" x="76.27" y="99.94" width="82.42" height="61.05" transform="translate(287.21 85.59) rotate(117.19)"/>
    <rect class="cls-6" x="14.14" y="59.57" width="81.91" height="77.33" transform="translate(-57.46 102.45) rotate(-62.86)"/>
    <path class="cls-6" d="M101.41,94.22c-10.55-5.42,.84-28.44,.84-28.44l-47.84-24.58s-11.39,23.02-21.95,17.6"/>
    <path class="cls-6" d="M76.53,142.65c-10.55-5.42-20.2,12.67-20.2,12.67l-47.84-24.58s9.64-18.09-.91-23.51"/>
    <g>
      <polyline class="cls-6" points="642.31 419.73 676.55 436.49 685.46 419.16 641.42 397.36"/>
      <rect class="cls-6" x="669.5" y="423.37" width="37.46" height="16.16" transform="translate(1386.49 16.45) rotate(117.19)"/>
      <line class="cls-6" x1="696.78" y1="414.79" x2="679.67" y2="448.11"/>
      <rect class="cls-6" x="685.49" y="411.79" width="4.53" height="1.81" transform="translate(1369.13 -10.45) rotate(117.19)"/>
      <rect class="cls-6" x="670.44" y="441.08" width="4.53" height="1.81" transform="translate(1373.26 45.61) rotate(117.19)"/>
      <rect class="cls-6" x="703.61" y="419.24" width="2.27" height="1.81" transform="translate(1400.51 -14.7) rotate(117.19)"/>
      <rect class="cls-6" x="687.53" y="450.55" width="2.27" height="1.81" transform="translate(1404.92 45.21) rotate(117.19)"/>
    </g>
    <g>
      <line class="cls-6" x1="594.77" y1="311.34" x2="632.21" y2="312.32"/>
      <g>
        <polyline class="cls-6" points="622.63 367.91 623.09 320.16 603.62 319.65 603 357.54"/>
        <rect class="cls-6" x="594.76" y="303.75" width="37.46" height="16.16" transform="translate(8.37 -15.95) rotate(1.5)"/>
        <rect class="cls-6" x="594.53" y="319.47" width="4.53" height="1.81" transform="translate(8.59 -15.51) rotate(1.5)"/>
        <rect class="cls-6" x="627.45" y="320.34" width="4.53" height="1.81" transform="translate(8.62 -16.37) rotate(1.5)"/>
        <rect class="cls-6" x="595.02" y="300.94" width="2.27" height="1.81" transform="translate(8.1 -15.5) rotate(1.5)"/>
        <rect class="cls-6" x="630.2" y="301.86" width="2.27" height="1.81" transform="translate(8.14 -16.42) rotate(1.5)"/>
      </g>
    </g>
    <rect class="cls-24" x="137.47" y="158.89" width="72.24" height="7" transform="translate(397.36 82.2) rotate(117.19)"/>
  </g>
  <g id="Layer_19" data-name="Layer 19">
    <g id="Layer_27" data-name="Layer 27">
      <rect class="cls-14" x="711.26" y="737.12" width="36.54" height="39.7" transform="translate(1736.2 453.99) rotate(117.19)"/>
      <line class="cls-14" x1="678.52" y1="705.5" x2="662.83" y2="701.74"/>
      <line class="cls-14" x1="657.14" y1="744.85" x2="646.11" y2="733.45"/>
    </g>
    <g id="Layer_24" data-name="Layer 24">
      <polyline class="cls-4" points="720.34 718.84 718.61 708.85 712.54 710.81 710.6 704.76 704.27 706.79 702.25 700.51 696.72 702.29 694.82 696.4 688.66 698.38 686.93 693 683.77 694.02 678.11 705.03 679.54 709.48 683.76 708.13 685.12 712.36 689.42 710.98 690.89 715.56 695.47 714.09 696.8 718.25 701.23 716.83 702.79 721.69 707.11 720.3 708.4 724.3 712.62 722.95"/>
      <polyline class="cls-4" points="695.52 769.33 684.14 775.96 682.19 769.89 676.14 771.83 674.11 765.5 667.83 767.52 666.05 761.98 660.16 763.87 658.18 757.71 652.8 759.44 651.78 756.27 657.44 745.26 661.89 743.83 663.25 748.05 667.48 746.69 668.86 750.99 673.45 749.51 674.92 754.09 679.08 752.76 680.5 757.18 685.36 755.62 686.75 759.94 690.75 758.66 692.1 762.88"/>
      <rect class="cls-4" x="713.98" y="736.69" width="30.57" height="40.28" transform="translate(1735.71 454.03) rotate(117.19)"/>
    </g>
    <g id="Layer_25" data-name="Layer 25">
      <path class="cls-6" d="M717.49,715.03s-15.86,15.6-1.82,25.41"/>
      <path class="cls-6" d="M688.64,771.7s5.66-20.61,18.23-14.06"/>
    </g>
    <g id="Layer_20" data-name="Layer 20">
      <rect class="cls-6" x="688.04" y="728.85" width="11.46" height="20.87" transform="translate(1668.38 460.03) rotate(117.19)"/>
      <rect class="cls-6" x="625.86" y="719.42" width="77.69" height="7.34" transform="translate(1611.64 462.29) rotate(117.19)"/>
      <line class="cls-6" x1="687.52" y1="700.76" x2="675.29" y2="694.47"/>
      <line class="cls-6" x1="659.62" y1="755.07" x2="647.38" y2="748.78"/>
      <path class="cls-6" d="M716.28,715.53s12.26,.22-.71,25.09l-8.91,17.34s-8.71,15.96-19.5,13.49"/>
    </g>
    <g id="Layer_21" data-name="Layer 21">
      <rect class="cls-23" x="663.54" y="720.46" width="25.68" height="20.29" transform="translate(1635.33 462.86) rotate(117.19)"/>
      <rect class="cls-23" x="664.3" y="721.82" width="20.18" height="16.05" transform="translate(1631.75 463.51) rotate(117.19)"/>
    </g>
    <g id="Layer_23" data-name="Layer 23">
      <rect class="cls-11" x="661.72" y="721.69" width="16.62" height="11.69" transform="translate(1623.35 464.03) rotate(117.19)"/>
    </g>
  </g>
  <g id="Layer_29" data-name="Layer 29">
    <line class="cls-6" x1="551.75" y1="700.28" x2="574.6" y2="751.18"/>
    <rect class="cls-14" x="480.07" y="772.97" width="59.14" height="6.12" transform="translate(1292.32 1275.4) rotate(155.83)"/>
    <polyline class="cls-14" points="465.99 766.66 475.55 787.98 486.64 783 477.09 761.73"/>
    <line class="cls-14" x1="530.15" y1="763.47" x2="523.05" y2="747.64"/>
    <rect class="cls-7" x="518.08" y="753.47" width="8.25" height="4.74" transform="translate(1308.08 1231.65) rotate(155.83)"/>
    <rect class="cls-7" x="510.8" y="760.66" width="14.22" height="5.94" transform="translate(1303.05 1248.29) rotate(155.83)"/>
    <line class="cls-16" x1="517.88" y1="756.28" x2="510.63" y2="759.54"/>
    <line class="cls-15" x1="505.02" y1="747.05" x2="505.83" y2="748.84"/>
    <rect class="cls-14" x="459.4" y="726.91" width="59.14" height="6.12" transform="translate(1233.93 1195.77) rotate(155.83)"/>
    <polyline class="cls-14" points="466.95 768.8 457.38 747.49 468.47 742.51 478.02 763.78"/>
    <polyline class="cls-14" points="524.17 736.54 512.13 741.94 516.09 750.77 528.13 745.37"/>
    <line class="cls-14" x1="511.99" y1="722.99" x2="519.09" y2="738.82"/>
    <rect class="cls-7" x="508.27" y="731.63" width="8.25" height="4.74" transform="translate(1280.4 1193.89) rotate(155.83)"/>
    <rect class="cls-7" x="496.62" y="729.07" width="14.22" height="5.94" transform="translate(1263.01 1193.69) rotate(155.83)"/>
    <line class="cls-24" x1="499.44" y1="734.62" x2="512.29" y2="763.24"/>
    <line class="cls-16" x1="509.2" y1="736.94" x2="501.94" y2="740.19"/>
    <polyline class="cls-6" points="506.29 749.87 491.22 756.62 483.13 760.25"/>
    <polyline class="cls-6" points="489.71 768.56 495.78 754.58 481.59 749.93"/>
    <line class="cls-14" x1="571.21" y1="745.05" x2="583.95" y2="735.15"/>
    <polyline class="cls-6" points="539.56 770.48 543.55 774.27 545.82 768.31 551.76 770.57 554.12 764.36 560.29 766.7 562.35 761.27 568.14 763.47 570.44 757.42 575.72 759.43 576.9 756.32 571.83 745.02 567.46 743.36 565.89 747.5 561.73 745.92 560.13 750.14 555.62 748.43 553.91 752.92 549.83 751.37 548.18 755.71 543.4 753.9 541.79 758.14 537.87 756.65 535.79 762.11"/>
    <polyline class="cls-6" points="544.7 731.34 547.17 736.82 528.13 745.37 525.67 739.88"/>
    <polyline class="cls-6" points="568.82 720.38 585.34 757.22 578.65 760.22"/>
    <line class="cls-6" x1="569.29" y1="755.04" x2="581.84" y2="749.41"/>
    <polyline class="cls-19" points="543.66 731.81 548.94 743.57 567.45 735.26"/>
    <polyline class="cls-11" points="564.7 722.42 568.04 729.84 557.37 734.63 554.03 727.21"/>
    <polyline class="cls-11" points="554.03 727.21 555.96 731.49 545.6 736.14 543.66 731.81"/>
    <line class="cls-6" x1="550.19" y1="734.57" x2="553.34" y2="741.59"/>
    <line class="cls-14" x1="553.05" y1="704.56" x2="568.91" y2="701.63"/>
    <polyline class="cls-6" points="513 711.3 512.83 705.8 518.79 708.07 521.05 702.13 527.26 704.49 529.61 698.33 535.04 700.4 537.24 694.62 543.29 696.92 545.3 691.64 548.41 692.82 553.48 704.12 551.81 708.49 547.67 706.91 546.09 711.07 541.87 709.46 540.16 713.96 535.66 712.25 534.11 716.34 529.77 714.68 527.95 719.46 523.71 717.84 522.21 721.76 516.75 719.68"/>
    <polyline class="cls-6" points="545.67 733.48 543.21 728 524.17 736.54 526.63 742.02"/>
    <polyline class="cls-6" points="569.88 722.75 553.35 685.92 546.66 688.92"/>
    <line class="cls-6" x1="544.3" y1="699.36" x2="556.85" y2="693.72"/>
    <polyline class="cls-19" points="544.62 733.95 539.34 722.19 557.86 713.88"/>
    <polyline class="cls-11" points="565.62 724.47 562.29 717.04 551.62 721.83 554.96 729.26"/>
    <polyline class="cls-11" points="554.96 729.26 553.03 724.97 542.68 729.62 544.62 733.95"/>
    <line class="cls-6" x1="546.9" y1="727.23" x2="543.75" y2="720.21"/>
    <line class="cls-6" x1="525.8" y1="739.82" x2="539.85" y2="771.13"/>
    <line class="cls-6" x1="526.76" y1="741.96" x2="512.71" y2="710.65"/>
    <line class="cls-15" x1="562.19" y1="723.54" x2="569.5" y2="739.82"/>
    <line class="cls-8" x1="578.65" y1="760.22" x2="569.5" y2="739.82"/>
    <line class="cls-8" x1="539.56" y1="770.48" x2="533.12" y2="756.14"/>
    <line class="cls-15" x1="563.11" y1="725.6" x2="555.81" y2="709.32"/>
    <line class="cls-8" x1="546.66" y1="688.92" x2="555.81" y2="709.32"/>
    <line class="cls-8" x1="513" y1="711.3" x2="519.44" y2="725.65"/>
  </g>
  <g id="Layer_36" data-name="Layer 36">
    <path class="cls-10" d="M619.74,726.01l12,.24s8.89-6.83,10.63-10.94c0,0-11.88-5.12-19.79-37l-2.98,.19,.14,47.51Z"/>
    <path class="cls-2" d="M622.59,678.31l3.33-.79s1.81,18.13,11.96,26.24l4.49,11.54"/>
    <path class="cls-10" d="M612.39,726.31l-12,.11s-8.82-6.93-10.52-11.05c0,0,11.93-4.99,20.17-36.79l2.98,.22-.63,47.5Z"/>
    <path class="cls-2" d="M610.04,678.59l-3.32-.82s-1.99,18.11-12.23,26.12l-4.61,11.49"/>
    <path class="cls-10" d="M574.13,704.13s3.34,4.82,6.47,5.28c0,0,13.52-11.45,14.69-38.01,0,0-8.34-1.95-10.43-2,0,0-2.83,5.6-3.18,7.42l3.43,2.21-1.99,6.55-3.93,.12-5.06,18.42Z"/>
    <path class="cls-10" d="M658.51,704.13s-3.34,4.82-6.47,5.28c0,0-13.52-11.45-14.69-38.01,0,0,8.34-1.95,10.43-2,0,0,2.83,5.6,3.18,7.42l-3.43,2.21,1.99,6.55,3.93,.12,5.06,18.42Z"/>
    <rect class="cls-17" x="615.66" y="583.49" width="16.07" height="4.89" transform="translate(1211.15 -36.33) rotate(90.14)"/>
    <rect class="cls-17" x="601.94" y="583.46" width="16.07" height="4.89" transform="translate(1197.37 -22.65) rotate(90.14)"/>
    <rect class="cls-17" x="615.83" y="516.56" width="16.07" height="4.89" transform="translate(1144.39 -103.59) rotate(90.14)"/>
    <rect class="cls-17" x="602.01" y="516.53" width="16.07" height="4.89" transform="translate(1130.51 -89.81) rotate(90.14)"/>
    <rect class="cls-17" x="607.16" y="551.02" width="33.23" height="4.89" transform="translate(1178.76 -68.96) rotate(90.14)"/>
    <rect class="cls-17" x="593.35" y="550.99" width="33.23" height="4.89" transform="translate(1164.88 -55.18) rotate(90.14)"/>
    <rect class="cls-18" x="605.58" y="473.82" width="22.2" height="6.76" transform="translate(1238.06 948.25) rotate(179.43)"/>
    <rect class="cls-18" x="605.4" y="639.64" width="22.2" height="6.76" transform="translate(1239.36 1279.89) rotate(179.43)"/>
    <line class="cls-21" x1="630.34" y1="470.31" x2="602.27" y2="470.92"/>
  </g>
  <g id="Layer_37" data-name="Layer 37">
    <line class="cls-21" x1="631.09" y1="484.19" x2="603.02" y2="484.79"/>
    <line class="cls-21" x1="631.75" y1="505.56" x2="603.68" y2="506.17"/>
    <line class="cls-21" x1="631.52" y1="531.77" x2="603.45" y2="532.37"/>
    <line class="cls-21" x1="632.37" y1="574.06" x2="604.3" y2="574.67"/>
    <line class="cls-21" x1="632.13" y1="600.27" x2="604.06" y2="600.87"/>
    <line class="cls-21" x1="631.23" y1="618.61" x2="603.17" y2="619.22"/>
    <line class="cls-21" x1="630.47" y1="635.9" x2="602.4" y2="636.51"/>
    <line class="cls-21" x1="630.5" y1="650.62" x2="602.43" y2="651.23"/>
    <line class="cls-1" x1="612.85" y1="634.75" x2="612.75" y2="624.82"/>
    <line class="cls-1" x1="621.18" y1="634.75" x2="621.08" y2="624.82"/>
    <ellipse class="cls-25" cx="616.86" cy="495.8" rx="10.43" ry="5.52" transform="translate(-23.54 30.81) rotate(-2.81)"/>
  </g>
  <g id="Layer_38" data-name="Layer 38">
    <g id="other_1234">
      <rect class="cls-13" x="433.58" y="275.87" width="8.02" height="15.46" transform="translate(889.82 23.97) rotate(117.19)"/>
      <rect class="cls-13" x="393.28" y="243.98" width="7.06" height="36.26" transform="translate(811.28 28.94) rotate(117.19)"/>
      <rect class="cls-13" x="350.48" y="232.87" width="8.02" height="15.46" transform="translate(730.49 35.23) rotate(117.19)"/>
      <rect class="cls-13" x="421.53" y="299.77" width="8.02" height="15.46" transform="translate(893.51 69.51) rotate(117.19)"/>
      <rect class="cls-13" x="381.23" y="267.88" width="7.06" height="36.26" transform="translate(814.98 74.48) rotate(117.19)"/>
      <rect class="cls-13" x="338.43" y="256.76" width="8.02" height="15.46" transform="translate(734.19 80.77) rotate(117.19)"/>
      <rect class="cls-13" x="273.51" y="193.19" width="8.02" height="15.46" transform="translate(583.05 45.89) rotate(117.19)"/>
      <rect class="cls-13" x="261.46" y="217.09" width="8.02" height="15.46" transform="translate(586.75 91.43) rotate(117.19)"/>
      <rect class="cls-13" x="78.2" y="92.85" width="8.02" height="15.46" transform="translate(209.24 73.42) rotate(117.19)"/>
      <rect class="cls-13" x="66.15" y="116.74" width="8.02" height="15.46" transform="translate(212.94 118.95) rotate(117.19)"/>
      <rect class="cls-13" x="33.47" y="70.29" width="8.02" height="15.46" transform="translate(124 80.34) rotate(117.19)"/>
      <rect class="cls-13" x="21.42" y="94.19" width="8.02" height="15.46" transform="translate(127.7 125.87) rotate(117.19)"/>
      <line class="cls-22" x1="451.45" y1="282.07" x2="432.59" y2="318.78"/>
      <line class="cls-22" x1="489.32" y1="301.69" x2="470.53" y2="338.27"/>
      <line class="cls-22" x1="457.75" y1="331.7" x2="476.54" y2="295.13"/>
      <line class="cls-22" x1="430.99" y1="271.73" x2="412.2" y2="308.3"/>
      <line class="cls-22" x1="374.15" y1="242.53" x2="355.36" y2="279.1"/>
      <line class="cls-22" x1="271.09" y1="189.57" x2="252.3" y2="226.15"/>
      <line class="cls-22" x1="289.57" y1="199.07" x2="270.78" y2="235.64"/>
      <line class="cls-22" x1="300.29" y1="204.58" x2="281.5" y2="241.15"/>
      <line class="cls-22" x1="322.44" y1="215.96" x2="303.65" y2="252.53"/>
      <line class="cls-22" x1="94.26" y1="98.72" x2="75.47" y2="135.3"/>
      <line class="cls-22" x1="76.92" y1="89.82" x2="58.13" y2="126.39"/>
      <line class="cls-22" x1="52.01" y1="123.25" x2="70.8" y2="86.67"/>
      <line class="cls-22" x1="32.05" y1="66.77" x2="13.26" y2="103.34"/>
      <line class="cls-22" x1="49.8" y1="75.88" x2="31.01" y2="112.46"/>
      <line class="cls-22" x1="56.52" y1="79.34" x2="37.73" y2="115.92"/>
      <line class="cls-6" x1="148.11" y1="148.94" x2="166.06" y2="158.17"/>
      <line class="cls-6" x1="152.62" y1="162.33" x2="161.85" y2="144.38"/>
      <rect class="cls-1" x="200.6" y="169.4" width="28.59" height="28.59" transform="translate(476.49 76.49) rotate(117.19)"/>
      <line class="cls-1" x1="209.56" y1="170.51" x2="200.99" y2="187.19"/>
      <line class="cls-1" x1="213.1" y1="172.36" x2="204.54" y2="189.04"/>
      <line class="cls-1" x1="216.55" y1="174.13" x2="207.98" y2="190.81"/>
      <line class="cls-1" x1="214.63" y1="186.09" x2="211.32" y2="192.52"/>
      <line class="cls-1" x1="219.89" y1="175.85" x2="216.62" y2="182.21"/>
      <line class="cls-1" x1="218.19" y1="187.92" x2="214.87" y2="194.37"/>
      <line class="cls-1" x1="223.44" y1="177.7" x2="220.18" y2="184.04"/>
      <line class="cls-1" x1="221.63" y1="189.69" x2="218.31" y2="196.14"/>
      <line class="cls-1" x1="226.88" y1="179.47" x2="223.62" y2="185.81"/>
      <rect class="cls-1" x="33.54" y="96.74" width="41.12" height="8.94" transform="translate(168.84 99.34) rotate(117.19)"/>
      <line class="cls-25" x1="58.92" y1="92.24" x2="54.41" y2="101.01"/>
      <polyline class="cls-25" points="42.83 117.41 51.72 99.98 56.31 102.34 47.42 119.77"/>
      <polygon class="cls-1" points="444.64 317 456.87 293.19 466.64 298.59 454.41 322.39 444.64 317"/>
      <line class="cls-1" x1="463.33" y1="302.78" x2="455.17" y2="298.59"/>
      <line class="cls-1" x1="464.54" y1="300.42" x2="456.38" y2="296.23"/>
      <line class="cls-1" x1="461.98" y1="305.4" x2="453.82" y2="301.21"/>
      <line class="cls-1" x1="452.5" y1="303.89" x2="460.66" y2="308.08"/>
      <line class="cls-1" x1="458.24" y1="312.79" x2="450.08" y2="308.6"/>
      <line class="cls-1" x1="459.45" y1="310.44" x2="451.29" y2="306.25"/>
      <rect class="cls-18" x="460.06" y="313.16" width="26.85" height="7.95" transform="translate(971.94 40.91) rotate(117.19)"/>
      <line class="cls-28" x1="287.28" y1="210.57" x2="292.31" y2="213.16"/>
      <line class="cls-28" x1="278.77" y1="227.14" x2="283.8" y2="229.73"/>
      <rect class="cls-18" x="305" y="233.99" width="26.75" height="7.03" transform="translate(675.13 62.84) rotate(117.19)"/>
      <rect class="cls-18" x="30.28" y="94.12" width="26.65" height="4.3" transform="translate(149.16 101.49) rotate(117.19)"/>
      <line class="cls-28" x1="67.27" y1="97.41" x2="70.19" y2="98.91"/>
      <line class="cls-28" x1="58.7" y1="114.08" x2="61.62" y2="115.58"/>
      <rect class="cls-25" x="283.35" y="222.75" width="26.39" height="6.65" transform="translate(633.15 65.63) rotate(117.19)"/>
      <ellipse class="cls-25" cx="307" cy="231.14" rx="13.83" ry="3.9" transform="translate(-38.89 398.58) rotate(-62.81)"/>
      <line class="cls-25" x1="300.91" y1="217.58" x2="292.34" y2="234.25"/>
      <rect class="cls-14" x="597.88" y="821.66" width="36.54" height="39.7" transform="translate(1222.11 1690.37) rotate(-179.31)"/>
      <line class="cls-14" x1="639.44" y1="772.89" x2="635.81" y2="746.18"/>
      <line class="cls-14" x1="594.69" y1="771.32" x2="598.97" y2="747.36"/>
      <polyline class="cls-4" points="646.16 816.27 654.33 810.27 649.87 805.71 654.42 801.27 649.78 796.52 654.5 791.91 650.43 787.75 654.86 783.42 650.34 778.79 654.38 774.85 652.06 772.47 639.68 772.32 636.33 775.59 639.43 778.76 636.25 781.86 639.4 785.09 635.95 788.46 639.31 791.9 636.19 794.95 639.43 798.28 635.78 801.84 638.95 805.09 635.95 808.02 639.04 811.2"/>
      <polyline class="cls-4" points="589.9 816.59 578.89 809.37 583.46 804.91 579.02 800.37 583.78 795.72 579.17 791 583.33 786.94 579.01 782.51 583.64 777.99 579.69 773.95 582.07 771.63 594.45 771.78 597.72 775.12 594.55 778.22 597.65 781.4 594.42 784.55 597.79 788 594.35 791.36 597.4 794.48 594.07 797.73 597.64 801.38 594.39 804.56 597.32 807.56 594.15 810.66"/>
      <rect class="cls-4" x="600.86" y="821.07" width="30.57" height="40.28" transform="translate(1222.12 1689.78) rotate(-179.31)"/>
      <path class="cls-6" d="M648.3,812.02s-21.04-7.23-23.55,9.71"/>
      <path class="cls-6" d="M584.71,811.49s20.97-4.13,20.72,10.04"/>
      <rect class="cls-6" x="610.28" y="791.18" width="11.46" height="20.87" transform="translate(1222.33 1610.59) rotate(-179.31)"/>
      <rect class="cls-11" x="578.69" y="764.72" width="77.69" height="7.34" transform="translate(1225.78 1544.15) rotate(-179.31)"/>
      <line class="cls-6" x1="647.7" y1="778.84" x2="647.87" y2="765.08"/>
      <line class="cls-6" x1="586.65" y1="778.1" x2="586.81" y2="764.35"/>
      <path class="cls-6" d="M647.31,811.17s5.27,11.07-22.77,10.56l-19.5-.23s-18.17-.68-20.77-11.43"/>
      <rect class="cls-23" x="603.18" y="772.04" width="25.68" height="20.29" transform="translate(1222.57 1571.72) rotate(-179.31)"/>
      <rect class="cls-29" x="605.72" y="772.03" width="20.18" height="16.05" transform="translate(1222.19 1567.47) rotate(-179.31)"/>
      <rect class="cls-11" x="607.62" y="769.28" width="16.62" height="11.69" transform="translate(1222.48 1557.62) rotate(-179.31)"/>
    </g>
    <g id="laser_TO_CHANGE_COLOR">
      



<!-- 
      <g id="mid">

        <g id="mid_qwewret">
          <line class="cls-3" x1="616.58" y1="626.92" x2="616.03" y2="755.34">
            <animate attributeType="CSS" attributeName="stroke" values='#EF4445;#231F20;#EF4445' dur="1.2" repeatCount="indefinite" />
          </line>
          <line class="cls-20" x1="616.61" y1="575.63" x2="616.59" y2="619.8">
            <animate attributeType="CSS" attributeName="stroke" values='#EF4445;#231F20;#EF4445' dur="1.2" repeatCount="indefinite" />
          </line>
          <polyline class="cls-20" points="616.62 564.38 616.63 553.69 616.63 545.83 616.66 500.76">
            <animate attributeType="CSS" attributeName="stroke" values='#EF4445;#231F20;#EF4445' dur="1.2" repeatCount="indefinite" />
          </polyline>
          <polyline class="cls-27" points="616.7 430.44 616.67 472.92 616.67 479.27 616.66 488.26">
            <animate attributeType="CSS" attributeName="stroke" values='#EF4445;#231F20;#EF4445' dur="1.2" repeatCount="indefinite" />
          </polyline>
          <path class="cls-27" d="M616.7,430.44v-13.81c0-15.15-8.23-29.1-21.48-36.44L178.56,164.95">
            <animate attributeType="CSS" attributeName="stroke" values='#EF4445;#231F20;#EF4445' dur="1.2" repeatCount="indefinite" />
          </path>
          <line class="cls-9" x1="142.2" y1="145.91" x2="20.72" y2="83.84">
            <animate attributeType="CSS" attributeName="stroke" values='#EF4445;#231F20;#EF4445' dur="1.2" repeatCount="indefinite" />
          </line>
        </g>
        <rect id="mid_213456" class="cls-26" x="603.45" y="821.65" width="24.84" height="39.7" transform="translate(1221.58 1690.36) rotate(-179.31)">
            <animate attributeType="CSS" attributeName="stroke" values='#EF4445;#231F20;#EF4445' dur="1.2" repeatCount="indefinite" />
        </rect>
        <rect id="mid_123w3r" class="cls-26" x="594.5" y="861.35" width="42.39" height="5.35" transform="translate(1220.95 1735.4) rotate(-179.31)">
            <animate attributeType="CSS" attributeName="stroke" values='#EF4445;#231F20;#EF4445' dur="1.2" repeatCount="indefinite" />
        </rect>
        <g id="mid_12q32ewredrgf">
          <line class="cls-26" x1="616.04" y1="753.45" x2="615.08" y2="879.24">
            <animate attributeType="CSS" attributeName="stroke" values='#EF4445;#231F20;#EF4445' dur="1.2" repeatCount="indefinite" />
          </line>
        </g>
      
      </g>
 -->




<!-- 
      <g id="left">
        <g id="left_1qaZ">
          <line class="cls-26" x1="601.93" y1="672.6" x2="600.3" y2="685.58">
            <animate attributeType="CSS" attributeName="stroke" values='#EF4445;#231F20;#EF4445' dur="1.2" repeatCount="indefinite" />
          </line>
          <line class="cls-26" x1="598.95" y1="689.51" x2="595.08" y2="699.02">
            <animate attributeType="CSS" attributeName="stroke" values='#EF4445;#231F20;#EF4445' dur="1.2" repeatCount="indefinite" />
          </line>
          <line class="cls-26" x1="592.35" y1="703.11" x2="586" y2="712.16">
            <animate attributeType="CSS" attributeName="stroke" values='#EF4445;#231F20;#EF4445' dur="1.2" repeatCount="indefinite" />
          </line>
        </g>
        <g id="left_1234">
          <polyline class="cls-26" points="523.49 763.56 519.83 755.41 510.63 759.54 506.75 750.89 498.56 732.64">
            <animate attributeType="CSS" attributeName="stroke" values='#EF4445;#231F20;#EF4445' dur="1.2" repeatCount="indefinite" />
          </polyline>
          <polyline class="cls-26" points="501.94 740.19 511.15 736.06 507.49 727.91">
            <animate attributeType="CSS" attributeName="stroke" values='#EF4445;#231F20;#EF4445' dur="1.2" repeatCount="indefinite" />
          </polyline>
          <line class="cls-26" x1="485.55" y1="759.3" x2="581.95" y2="715.49">
            <animate attributeType="CSS" attributeName="stroke" values='#EF4445;#231F20;#EF4445' dur="1.2" repeatCount="indefinite" />
          </line>
          <polyline class="cls-26" points="490.1 767.65 495.78 754.71 482.66 750.47">
            <animate attributeType="CSS" attributeName="stroke" values='#EF4445;#231F20;#EF4445' dur="1.2" repeatCount="indefinite" />
          </polyline>
          <polyline class="cls-26" points="543.66 731.81 548.94 743.57 567.45 735.26">
            <animate attributeType="CSS" attributeName="stroke" values='#EF4445;#231F20;#EF4445' dur="1.2" repeatCount="indefinite" />
          </polyline>
          <polyline class="cls-26" points="544.62 733.95 539.34 722.19 557.86 713.88">
            <animate attributeType="CSS" attributeName="stroke" values='#EF4445;#231F20;#EF4445' dur="1.2" repeatCount="indefinite" />
          </polyline>
        </g>
        <path id="left_plasd" class="cls-27" d="M605.04,488.45v-72.34c0-12.59-4.01-21.13-15.17-26.93-4.43-2.3-416.73-214.72-416.73-214.72">
            <animate attributeType="CSS" attributeName="stroke" values='#EF4445;#231F20;#EF4445' dur="1.2" repeatCount="indefinite" />
          </path>
        <path id="left_0987" class="cls-20" d="M605.04,563.32v-61.76">
            <animate attributeType="CSS" attributeName="stroke" values='#EF4445;#231F20;#EF4445' dur="1.2" repeatCount="indefinite" />
          </path>
        <path id="left_dfg" class="cls-20" d="M604.04,619.77c0-15.14,.61-29.1,.88-44.14">
            <animate attributeType="CSS" attributeName="stroke" values='#EF4445;#231F20;#EF4445' dur="1.2" repeatCount="indefinite" />
          </path>
        <path id="left_plplpl" class="cls-3" d="M602.35,666.89l1.69-39.82">
            <animate attributeType="CSS" attributeName="stroke" values='#EF4445;#231F20;#EF4445' dur="1.2" repeatCount="indefinite" />
          </path>
        <line id="left_iuytrde" class="cls-9" x1="137.06" y1="155.86" x2="15.79" y2="93.34">
            <animate attributeType="CSS" attributeName="stroke" values='#EF4445;#231F20;#EF4445' dur="1.2" repeatCount="indefinite" />
          </line>
        <line id="left_iuytrewqasdf" class="cls-26" x1="510.41" y1="759.06" x2="514.01" y2="767.09">
            <animate attributeType="CSS" attributeName="stroke" values='#EF4445;#231F20;#EF4445' dur="1.2" repeatCount="indefinite" />
          </line>
      </g>
 -->



      
      <g id="right">
        <g id="right_12qwas">
          <line class="cls-5" x1="630.67" y1="672.6" x2="632.31" y2="685.58">
            <animate attributeType="CSS" attributeName="stroke" values='#EF4445;#231F20;#EF4445' dur="1.2" repeatCount="indefinite" />
          </line>
          <line class="cls-26" x1="633.65" y1="689.51" x2="637.52" y2="699.02">
            <animate attributeType="CSS" attributeName="stroke" values='#EF4445;#231F20;#EF4445' dur="1.2" repeatCount="indefinite" />
          </line>
          <line class="cls-26" x1="640.26" y1="703.11" x2="646.61" y2="712.16">
            <animate attributeType="CSS" attributeName="stroke" values='#EF4445;#231F20;#EF4445' dur="1.2" repeatCount="indefinite" />
          </line>
        </g>
        <rect id="right_12324356456" class="cls-26" x="716.98" y="737.35" width="24.84" height="39.7" transform="translate(1736.24 454.45) rotate(117.19)">
            <animate attributeType="CSS" attributeName="stroke" values='#EF4445;#231F20;#EF4445' dur="1.2" repeatCount="indefinite" />
          </rect>
        <rect id="right_1234567" class="cls-26" x="728.28" y="764.74" width="42.39" height="5.35" transform="translate(1774.57 451.46) rotate(117.19)">
            <animate attributeType="CSS" attributeName="stroke" values='#EF4445;#231F20;#EF4445' dur="1.2" repeatCount="indefinite" />
          </rect>
        <g id="right_1234">
          <line class="cls-26" x1="650.44" y1="716.53" x2="762.81" y2="774.76">
            <animate attributeType="CSS" attributeName="stroke" values='#EF4445;#231F20;#EF4445' dur="1.2" repeatCount="indefinite" />
          </line>
        </g>
        <path id="right_qwewrety" class="cls-20" d="M629.67,619.78c0-14.84-.61-29.42-.88-44.14">
            <animate attributeType="CSS" attributeName="stroke" values='#EF4445;#231F20;#EF4445' dur="1.2" repeatCount="indefinite" />
          </path>
        <polyline id="right_876543" class="cls-20" points="628.78 563.24 628.78 553 628.78 545.17 628.91 501.56">
            <animate attributeType="CSS" attributeName="stroke" values='#EF4445;#231F20;#EF4445' dur="1.2" repeatCount="indefinite" />
          </polyline>
        <path id="right_lmjhg" class="cls-3" d="M630.57,666.47l-.63-39.55">
            <animate attributeType="CSS" attributeName="stroke" values='#EF4445;#231F20;#EF4445' dur="1.2" repeatCount="indefinite" />
          </path>
        <line id="right_dsfvdbg" class="cls-9" x1="147.05" y1="136.43" x2="25.52" y2="74.28">
            <animate attributeType="CSS" attributeName="stroke" values='#EF4445;#231F20;#EF4445' dur="1.2" repeatCount="indefinite" />
          </line>
        <path id="right_tgbvc" class="cls-27" d="M181.91,153.86l415.97,214.08c16.07,8.36,31.16,29.97,31.16,48.09h0v44.68l-.08,27.74">
            <animate attributeType="CSS" attributeName="stroke" values='#EF4445;#231F20;#EF4445' dur="1.2" repeatCount="indefinite" />
          </path>
      </g>





    </g>
  </g>
  <g id="Layer_17" data-name="Layer 17">
    <rect class="cls-12" x="138.09" y="158.82" width="72.24" height="7" transform="translate(398.21 81.55) rotate(117.19)"/>
  </g>
</svg>